<?xml version="1.0" encoding="UTF-8"?>
<svg width="63px" height="63px" viewBox="0 0 63 63" version="1.1" xmlns="http://www.w3.org/2000/svg" xmlns:xlink="http://www.w3.org/1999/xlink">
    <!-- Generator: Sketch 58 (84663) - https://sketch.com -->
    <title>Group 3</title>
    <desc>Created with Sketch.</desc>
    <g id="Lacuna" stroke="none" stroke-width="1" fill="none" fill-rule="evenodd">
        <g id="Main" transform="translate(-170.000000, -453.000000)" fill="#FFFFFF">
            <g id="Cards" transform="translate(72.000000, 238.000000)">
                <g id="Group" transform="translate(0.000000, 195.000000)">
                    <g id="Group-3" transform="translate(98.000000, 20.000000)">
                        <g id="Messages/icon" opacity="0.24">
                            <g id="Group">
                                <circle id="Oval-Copy-8" cx="31.5" cy="31.5" r="31.5"></circle>
                            </g>
                        </g>
                        <g id="bullfighter" transform="translate(12.000000, 12.000000)" fill-rule="nonzero">
                            <path d="M36.0562658,15.0186733 C36.1730802,14.9270831 36.2563272,14.7978516 36.2900064,14.652871 L39.5912438,0.811694965 C39.6447277,0.589532914 39.5780406,0.354972679 39.4155746,0.193461203 C39.25378,0.0312795555 39.0174658,-0.0352908731 38.7962569,0.0180995042 L24.9309259,3.3136708 C24.7856911,3.34796127 24.6569044,3.43028075 24.5644823,3.54767256 L19.8047434,9.5949705 L15.0448927,3.54767256 C14.9524706,3.43039244 14.8236839,3.34796127 14.6784491,3.3136708 L0.81311806,0.0182111995 C0.592580547,-0.0351791777 0.356266378,0.0313912508 0.193800387,0.193572899 C0.031334396,0.355754547 -0.0353527464,0.589644609 0.0181312369,0.81180666 L3.31936856,14.652871 C3.35371916,14.7978516 3.4368543,14.9270831 3.55310924,15.0186733 L10.9618717,20.8292888 L10.4984185,21.4184818 L8.3835633,19.307328 C8.20666335,19.1307376 7.94517366,19.0687467 7.70807626,19.147827 C7.47109074,19.2269073 7.29866643,19.4325384 7.26308504,19.6797202 L6.6028152,24.2934084 C6.57372349,24.4990395 6.64309602,24.706011 6.78967346,24.8530021 L8.30434435,26.3643519 L1.12137826,33.5340764 C0.74766172,33.907809 0.540998714,34.4047416 0.540998714,34.9327255 C0.540998714,35.4607094 0.74766172,35.9576421 1.12137826,36.3307045 L3.21575733,38.4213064 C3.60200568,38.8062086 4.1090965,38.9986597 4.61618732,38.9986597 C5.12327814,38.9986597 5.63036896,38.8062086 6.01661731,38.4206362 L13.1995834,31.2509117 L14.7135829,32.7622615 C14.8376703,32.8868018 15.0060665,32.9553828 15.1803929,32.9553828 C15.2113868,32.9553828 15.2424925,32.9533722 15.2741577,32.9487927 L19.8055267,32.3028585 L24.3368956,32.9487927 C24.3685608,32.9533722 24.3996666,32.9553828 24.4306604,32.9553828 C24.6049869,32.9553828 24.7733831,32.8868018 24.8974704,32.7622615 L26.41147,31.2509117 L33.5942123,38.4213064 C33.9679288,38.7943689 34.4650613,39 34.9946423,39 C35.5235519,39 36.0213557,38.7943689 36.3950723,38.4213064 L38.4894513,36.3305928 C39.2612767,35.5601183 39.2612767,34.3052211 38.4894513,33.5346348 L31.3064852,26.3642402 L32.8204848,24.8528904 C32.9677336,24.7058993 33.0364347,24.4989278 33.007343,24.2932967 L32.3470732,19.6796086 C32.3113799,19.4324267 32.1397388,19.2261254 31.902082,19.1477153 C31.6650965,19.0679648 31.4022641,19.1306259 31.2265949,19.3072163 L29.1117398,21.4183701 L28.6482865,20.8291771 L36.0562658,15.0186733 Z M25.4610663,4.54287813 L38.0581108,1.54854919 L35.0593154,14.1242169 L27.8314809,19.7925326 L20.6445986,10.6619962 L25.4610663,4.54287813 Z M1.8437477,2.77261853 L24.8173563,25.7053493 L22.3968145,28.1216548 L4.55084287,14.1242169 L1.8437477,2.77261853 Z M19.8054148,30.7085191 L18.1541248,29.0601191 L19.8054148,27.7650115 L21.4567048,29.0601191 L19.8054148,30.7085191 Z M18.7364065,26.9266262 L17.2139032,28.1215431 L14.7933613,25.7052376 L15.8431244,24.6573118 L18.7364065,26.9266262 Z M12.001117,21.6439947 L14.7972775,23.837468 L13.8597414,24.7733633 L11.4391995,22.3570578 L12.001117,21.6439947 Z M5.08299732,37.4887619 C4.82486437,37.7464431 4.40751027,37.7457729 4.14937733,37.4887619 L2.05499825,35.3980484 C1.93023958,35.2741782 1.8615384,35.1087574 1.8615384,34.9327255 C1.8615384,34.7566937 1.93023958,34.5912728 2.05499825,34.4667325 L6.59688496,29.9327949 L9.62477214,32.9553828 L5.08299732,37.4887619 Z M10.558504,32.0235084 L7.53061685,29.0009206 L9.23807623,27.2964495 L12.2659634,30.3190374 L10.558504,32.0235084 Z M15.4140217,31.5970556 L13.6669529,29.8530444 L9.70544568,25.8984705 L7.95837682,24.1544594 L8.38490599,21.1720818 L18.4016281,31.1712729 L15.4140217,31.5970556 Z M27.3448662,30.3190374 L30.3727534,27.2964495 L32.0802127,29.0009206 L29.0523256,32.0235084 L27.3448662,30.3190374 Z M37.5557194,35.3987185 L35.4613404,37.4887619 C35.2123825,37.7385127 34.7766782,37.7379542 34.5277204,37.4887619 L29.9858337,32.9554944 L33.0137208,29.9329066 L37.5556076,34.4668442 C37.8125097,34.7238552 37.8125097,35.1417075 37.5557194,35.3987185 L37.5557194,35.3987185 Z M31.6530122,24.1537892 L29.9059434,25.8978004 L25.9444362,29.8523742 L24.1973673,31.5963854 L21.209761,31.1706028 L31.2271544,21.1707415 L31.6530122,24.1537892 Z M25.7509763,24.7733633 L12.8191534,11.8641732 L17.1675803,11.8641732 L17.1675803,10.5460564 L11.4986137,10.5460564 L10.1781859,9.22782788 L15.8471525,9.22782788 L15.8471525,7.90959936 L8.85764622,7.90959936 L2.7773677,1.83996236 L14.1496514,4.54287813 L28.1715182,22.3570578 L25.7509763,24.7733633 Z" id="Shape"></path>
                            <polygon id="Path" points="23.765625 7.921875 31.078125 7.921875 31.078125 9.140625 23.765625 9.140625"></polygon>
                            <polygon id="Path" points="22.546875 10.359375 28.640625 10.359375 28.640625 11.578125 22.546875 11.578125"></polygon>
                        </g>
                    </g>
                </g>
            </g>
        </g>
    </g>
</svg>