<?xml version="1.0" encoding="UTF-8"?>
<svg width="63px" height="63px" viewBox="0 0 63 63" version="1.1" xmlns="http://www.w3.org/2000/svg" xmlns:xlink="http://www.w3.org/1999/xlink">
    <!-- Generator: Sketch 58 (84663) - https://sketch.com -->
    <title>Group 2</title>
    <desc>Created with Sketch.</desc>
    <g id="Lacuna" stroke="none" stroke-width="1" fill="none" fill-rule="evenodd">
        <g id="Main" transform="translate(-169.000000, -258.000000)" fill="#FFFFFF">
            <g id="Cards" transform="translate(72.000000, 238.000000)">
                <g id="Messages-block">
                    <g id="Group-2" transform="translate(97.000000, 20.000000)">
                        <g id="Group" opacity="0.24">
                            <circle id="Oval-Copy-8" cx="31.5" cy="31.5" r="31.5"></circle>
                        </g>
                        <path d="M42.9100963,27.7838465 C44.9858166,25.9092681 46.1759596,24.8205189 46.4978029,24.2589605 C47.1894839,23.0492637 47.1648657,21.543917 46.4351282,20.3316867 C45.7528202,19.1994272 44.6038958,18.5500771 43.2818536,18.5500771 C42.4435928,18.5500771 41.5379142,18.9726228 40.8615915,19.470513 C40.7403073,19.3105713 40.5551062,19.2000881 40.3351235,19.2000881 L36.9606239,19.2000881 L37.3877157,18.7834907 C37.5783373,18.5975529 37.6355916,18.3180955 37.5322629,18.0749886 C37.4289343,17.8325425 37.1858014,17.6739226 36.9165822,17.6739226 L33.3794671,17.6739226 L31.5964548,14.348413 C31.4811558,14.1346066 31.2539457,14 31.0060698,14 L30.9194544,14 C30.6715786,14 30.4443685,14.1344964 30.3290695,14.348413 L28.5458313,17.6738125 L25.0087162,17.6738125 C24.7394971,17.6738125 24.4962512,17.8317714 24.3930355,18.0748784 C24.2897068,18.3179854 24.347074,18.5974428 24.5375827,18.7833805 L24.9646745,19.199978 L21.6767904,19.199978 C21.4542103,19.199978 21.2669765,19.3131048 21.1456923,19.4769018 C20.4680144,18.976368 19.559061,18.549967 18.7180899,18.549967 C17.3960477,18.549967 16.2472362,19.1993171 15.5648153,20.3322375 C14.8345132,21.5444678 14.8111372,23.0492637 15.5021406,24.2588503 C15.8233064,24.8204088 17.0141269,25.9091579 19.0905248,27.7843973 C20.9443426,29.4581674 24.0229721,32.238201 24.3155672,33.0298683 C24.2309845,33.301615 23.967073,33.4997797 23.675833,33.4997797 C23.3087057,33.4997797 23.0094478,33.208536 23.0094478,32.8497687 L21.6767904,32.8497687 C21.6767904,33.9248589 22.5737735,34.7998017 23.6759459,34.7998017 C24.3349908,34.7998017 24.9253757,34.4787066 25.292616,33.9814774 C26.1822588,35.1482147 27.1838128,36.071845 28.2692719,36.6646867 C27.9028222,37.017616 27.674144,37.5076853 27.674144,38.0498568 C27.674144,38.8961599 28.233248,39.611161 29.0069143,39.880264 L29.0069143,40.6499009 C29.0069143,41.7249911 28.1099312,42.5999339 27.0077588,42.5999339 C26.6399539,42.5999339 26.3413736,42.8905167 26.3413736,43.2499449 L26.3413736,45.199978 L25.6749885,45.199978 C25.3071836,45.199978 25.0086033,45.4905608 25.0086033,45.849989 L25.0086033,49.0999339 L23.0094478,49.0999339 C22.6416429,49.0999339 22.3430626,49.3905167 22.3430626,49.7499449 L22.3430626,52.349989 C22.3430626,52.7094172 22.6416429,53 23.0094478,53 L39.0023531,53 C39.370158,53 39.6687383,52.7094172 39.6687383,52.349989 L39.6687383,49.7499449 C39.6687383,49.3905167 39.370158,49.0999339 39.0023531,49.0999339 L37.0031976,49.0999339 L37.0031976,45.849989 C37.0031976,45.4905608 36.7046173,45.199978 36.3368124,45.199978 L35.6704273,45.199978 L35.6704273,43.2499449 C35.6704273,42.8905167 35.3718469,42.5999339 35.0040421,42.5999339 C33.9018697,42.5999339 33.0048866,41.7249911 33.0048866,40.6499009 L33.0048866,39.880264 C33.7785529,39.611161 34.3376569,38.8961599 34.3376569,38.0498568 C34.3376569,37.5077954 34.1090917,37.017616 33.7419644,36.6640258 C34.8255037,36.0725059 35.825025,35.1521802 36.7126351,33.9899592 C37.08044,34.4826721 37.6682276,34.7998017 38.3238847,34.7998017 C39.4260571,34.7998017 40.3230402,33.9248589 40.3230402,32.8497687 L38.9902699,32.8497687 C38.9902699,33.208536 38.6916896,33.4997797 38.3238847,33.4997797 C38.0319671,33.4997797 37.768846,33.3015049 37.6841504,33.0298683 C37.9769714,32.238972 41.0562785,29.4582776 42.9100963,27.7838465 L42.9100963,27.7838465 Z M28.9489825,18.9738345 C29.1968584,18.9738345 29.4240685,18.8393381 29.5393675,18.6254215 L30.9627057,15.9715128 L32.3853663,18.6254215 C32.5006653,18.8392279 32.7278754,18.9738345 32.9757513,18.9738345 L35.3073653,18.9738345 L33.4894585,20.7470725 C33.304822,20.9271721 33.2448575,21.1962751 33.3368934,21.4354166 L34.256462,23.8267213 L31.2764183,22.5351811 C31.191158,22.4981698 31.0991221,22.4793337 31.005844,22.4793337 L30.9192286,22.4793337 C30.8259505,22.4793337 30.7340275,22.4981698 30.6486543,22.5351811 L27.6688364,23.8267213 L28.588405,21.4354166 C28.680328,21.1968259 28.6203635,20.9277229 28.43584,20.7470725 L26.6179331,18.9738345 L28.9489825,18.9738345 Z M19.9962033,26.8303649 C18.5448591,25.5199885 16.9002959,24.0346896 16.6664231,23.6252521 C16.203985,22.8166212 16.2219405,21.806521 16.7137397,20.9901795 C17.1502045,20.2660357 17.8805066,19.8500991 18.7182028,19.8500991 C19.3519519,19.8500991 20.2554849,20.3642919 20.7286511,20.8400413 C20.9411806,21.0531868 21.0211333,21.3217391 20.9338403,21.5245302 C20.8292695,21.7643326 20.5193964,21.8001322 20.3441329,21.8001322 C19.9770057,21.8001322 19.6777478,21.5088885 19.6777478,21.1501212 L18.3449774,21.1501212 C18.3449774,22.2252114 19.2419606,23.1001542 20.3441329,23.1001542 C20.6567163,23.1001542 20.945246,23.0448576 21.2011397,22.9428562 C21.4723916,25.1879883 22.0281078,27.4109797 22.8104695,29.4175211 C22.052726,28.6991052 21.1237844,27.8494975 19.9962033,26.8303649 Z M38.3360809,51.6998678 L23.6759459,51.6998678 L23.6759459,50.3999559 L38.3360809,50.3999559 L38.3360809,51.6998678 Z M26.3414866,49.0999339 L26.3414866,46.4998898 L35.6706531,46.4998898 L35.6706531,49.0999339 L26.3414866,49.0999339 Z M34.3378828,43.8343049 L34.3378828,45.199978 L27.674144,45.199978 L27.674144,43.8343049 C29.192793,43.532046 30.3396847,42.2196868 30.3396847,40.650011 L30.3396847,40 L31.672455,40 L31.672455,40.650011 C31.672455,42.2196868 32.8192338,43.5327069 34.3378828,43.8343049 Z M32.3388402,37.3999559 C32.7059675,37.3999559 33.0052254,37.6911996 33.0052254,38.049967 C33.0052254,38.4087343 32.7059675,38.699978 32.3388402,38.699978 L29.6732995,38.699978 C29.3061722,38.699978 29.0069143,38.4087343 29.0069143,38.049967 C29.0069143,37.6911996 29.3060593,37.3999559 29.6732995,37.3999559 L32.3388402,37.3999559 Z M31.0060698,36.0999339 C26.6693151,36.0999339 22.5624807,28.6080089 22.351871,20.5 L26.2974448,20.5 L27.189685,21.3703164 L25.8628998,24.8218407 C25.7689441,25.0675914 25.8348938,25.3437442 26.0294679,25.5231829 C26.2247195,25.7032826 26.5125717,25.7499873 26.7571727,25.6446813 L30.9625927,23.821434 L35.1686904,25.6446813 C35.2546282,25.6816926 35.3472288,25.699978 35.4385871,25.699978 C35.6051552,25.699978 35.7698035,25.6388432 35.8957176,25.5231829 C36.0909693,25.3437442 36.1569189,25.0674812 36.0622857,24.8218407 L34.7350488,21.3703164 L35.6279665,20.5 L39.6601558,20.5 C39.4496589,28.6081191 35.3428246,36.0999339 31.0060698,36.0999339 L31.0060698,36.0999339 Z M40.8103224,22.9466014 C41.0635058,23.0460692 41.3480831,23.1000441 41.6552459,23.1000441 C42.7574183,23.1000441 43.6544014,22.2251013 43.6544014,21.150011 L42.321744,21.150011 C42.321744,21.5087783 42.0224861,21.800022 41.6553588,21.800022 C41.4800954,21.800022 41.1708999,21.7642224 41.0670066,21.52442 C40.9790361,21.3216289 41.0596663,21.0531868 41.2721958,20.8399312 C41.7453621,20.3641817 42.6482174,19.849989 43.2819665,19.849989 C44.1188722,19.849989 44.8492873,20.2660357 45.2857521,20.9907302 C45.7775513,21.807182 45.7961844,22.817172 45.3337463,23.6258028 C45.0998734,24.0353505 43.4551973,25.5198783 42.0045307,26.8302547 C40.8863226,27.8403549 39.9628015,28.6853361 39.2091234,29.3990154 C39.9867421,27.3984223 40.539861,25.1839126 40.8103224,22.9466014 L40.8103224,22.9466014 Z" id="Shape" fill-rule="nonzero"></path>
                        <path d="M18.1434656,38.9471269 C18.2265005,38.9827928 18.3152732,39 18.4028551,39 C18.5625377,39 18.7203798,38.9421212 18.841089,38.8326207 C19.0282695,38.6627386 19.091493,38.4011889 19.0014212,38.1686307 L18.1875272,36.0788403 L19.812717,34.5126708 C19.9954588,34.3366357 20.0503463,34.0720617 19.951289,33.8419022 C19.8522316,33.6117426 19.6191492,33.4615705 19.3610588,33.4615705 L17.252924,33.4615705 L16.0954147,31.3298571 C15.9848819,31.1274377 15.7082791,31 15.4706498,31 C15.2330205,31 15.0152026,31.1273334 14.9046698,31.3298571 L13.7471605,33.4615705 L11.6389174,33.4615705 C11.380827,33.4615705 11.1476363,33.6111169 11.0486872,33.8412765 C10.9496299,34.071436 11.0046257,34.33601 11.1872592,34.5120451 L12.812449,36.0782146 L11.998555,38.168005 C11.9084832,38.4006674 11.9717067,38.6621128 12.1588872,38.831995 C12.3454181,39.0018772 12.6213712,39.0467202 12.8565106,38.9470226 L15.4999881,37.8146835 L18.1434656,38.9471269 Z M15.2119099,36.5915111 L13.729839,37.2259881 L14.1533497,36.139222 C14.2414728,35.9133382 14.1839871,35.6585671 14.0070913,35.4875378 L13.1810722,34.6924601 L14.1341878,34.6924601 C14.3718171,34.6924601 14.589635,34.5651267 14.7001678,34.362603 L15.4999881,32.8887267 L16.2998084,34.362603 C16.4103412,34.5650224 16.6281591,34.6924601 16.8657884,34.6924601 L17.818904,34.6924601 L16.9928849,35.4881635 C16.8158808,35.6586714 16.7583951,35.9134425 16.8466265,36.1398477 L17.2701372,37.2266138 L15.7880663,36.5921368 C15.7056809,36.556471 15.5612629,36.538638 15.4718407,36.538638 C15.3824184,36.538638 15.2936457,36.5563667 15.2119099,36.5915111 Z" id="Shape" fill-rule="nonzero"></path>
                        <path d="M50.3609506,33.4616026 L48.2528157,33.4616026 L47.0953064,31.3298614 C46.9854232,31.1274394 46.7081709,31 46.4705415,31 C46.2329122,31 46.0150943,31.1273351 45.9045615,31.3298614 L44.7470522,33.4616026 L42.6389174,33.4616026 C42.380827,33.4616026 42.1476363,33.6111509 42.0486872,33.8413135 C41.9496299,34.0714761 42.0046257,34.3360535 42.1872592,34.5120908 L43.812449,36.0782808 L42.998555,38.1680984 C42.9084832,38.4007639 42.9717067,38.6622127 43.1588872,38.8320971 C43.3460676,39.0019815 43.6220208,39.0468251 43.8565106,38.9471262 L46.4999881,37.8147723 L49.1434656,38.9471262 C49.2271501,38.9827926 49.3152732,39 49.4028551,39 C49.5625377,39 49.7203798,38.9421204 49.841089,38.8326185 C50.0282695,38.6627342 50.091493,38.4011811 50.0014212,38.1686199 L49.1875272,36.0788023 L50.812717,34.5126123 C50.9954588,34.3365749 51.0503463,34.0719975 50.951289,33.8418349 C50.8521234,33.6117767 50.6195822,33.4616026 50.3609506,33.4616026 Z M47.8465182,36.1397062 L48.2700289,37.2264864 L46.787958,36.5920011 C46.7062222,36.5563348 46.5611546,36.5385016 46.4717324,36.5385016 C46.3823102,36.5385016 46.294187,36.5563348 46.2123429,36.5913754 L44.730272,37.2258607 L45.1537827,36.1390804 C45.2419059,35.9131937 45.1844201,35.6584193 45.0075243,35.4873877 L44.1808557,34.6922997 L45.1339713,34.6922997 C45.3716006,34.6922997 45.5894185,34.5649646 45.6999513,34.3624382 L46.4997716,32.8885427 L47.2995919,34.3624382 C47.4101247,34.5648603 47.6285921,34.6922997 47.8662215,34.6922997 L48.819337,34.6922997 L47.993318,35.4880135 C47.8157726,35.6585235 47.7582869,35.913298 47.8465182,36.1397062 L47.8465182,36.1397062 Z" id="Shape" fill-rule="nonzero"></path>
                    </g>
                </g>
            </g>
        </g>
    </g>
</svg>